<svg width="512" height="512" viewBox="0 0 512 512" xmlns="http://www.w3.org/2000/svg">
  <defs>
    <linearGradient id="bg" x1="0" y1="0" x2="1" y2="1">
      <stop offset="0%" stop-color="#055071"/>
      <stop offset="100%" stop-color="#0a6e9a"/>
    </linearGradient>
    <linearGradient id="pinGrad" x1="0" y1="0" x2="0" y2="1">
      <stop offset="0%" stop-color="#f9a03c"/>
      <stop offset="100%" stop-color="#e2761b"/>
    </linearGradient>
  </defs>

  <!-- Fundo -->
  <rect x="0" y="0" width="512" height="512" rx="112" fill="url(#bg)"/>

  <!-- Ondas concêntricas (impacto localizado) -->
  <path d="M152,424 A104,52 0 0 0 360,424" fill="none" stroke="#ffffff" stroke-opacity="0.55" stroke-width="16" stroke-linecap="round"/>
  <path d="M112,440 A152,76 0 0 0 400,440" fill="none" stroke="#ffffff" stroke-opacity="0.32" stroke-width="14" stroke-linecap="round"/>
  <path d="M80,454 A192,96 0 0 0 432,454" fill="none" stroke="#ffffff" stroke-opacity="0.18" stroke-width="12" stroke-linecap="round"/>

  <!-- Pin de localização -->
  <path d="M256,132 C194,132 158,178 158,228 C158,298 256,396 256,396 C256,396 354,298 354,228 C354,178 318,132 256,132 Z" fill="url(#pinGrad)"/>
  <circle cx="256" cy="226" r="42" fill="#ffffff"/>
  <circle cx="256" cy="226" r="19" fill="#e2761b"/>
</svg>
